<?xml version="1.0" encoding="UTF-8"?><svg id="Layer_1" xmlns="http://www.w3.org/2000/svg" viewBox="0 0 207.3 138.2"><defs><style>.cls-1{fill:#929ab0;}.cls-1,.cls-2,.cls-3,.cls-4,.cls-5{stroke-width:0px;}.cls-2{fill:#261b15;}.cls-3{fill:#fff;}.cls-4{fill:#c9cee1;}.cls-5{fill:#6c758d;}</style></defs><polygon class="cls-1" points="30.71 0 61.42 0 61.42 7.68 76.78 7.68 76.78 15.36 92.13 15.36 92.13 38.39 84.45 38.39 84.45 46.07 76.78 46.07 76.78 53.74 92.13 53.74 92.13 46.07 99.81 46.07 99.81 38.39 115.17 38.39 115.17 30.71 122.84 30.71 122.84 23.03 145.88 23.03 145.88 30.71 138.2 30.71 138.2 38.39 130.52 38.39 130.52 53.74 138.2 53.74 138.2 61.42 168.91 61.42 168.91 53.74 176.59 53.74 176.59 46.07 184.27 46.07 184.27 38.39 191.94 38.39 191.94 30.71 207.3 30.71 207.3 46.07 199.62 46.07 199.62 53.74 191.94 53.74 191.94 76.78 199.62 76.78 199.62 84.46 207.3 84.46 207.3 99.81 191.94 99.81 191.94 92.13 184.27 92.13 184.27 84.46 176.59 84.46 176.59 92.13 168.91 92.13 168.91 99.81 161.23 99.81 153.55 99.81 153.55 107.49 138.2 107.49 138.2 115.17 107.49 115.17 84.45 115.17 84.45 107.49 61.42 107.49 61.42 99.81 46.07 99.81 46.07 92.13 23.03 92.13 23.03 84.46 15.36 84.46 15.36 76.78 15.36 46.07 7.68 46.07 7.68 38.39 0 38.39 0 15.36 15.36 15.36 15.36 7.68 30.71 7.68 30.71 0"/><polygon class="cls-4" points="76.78 53.74 76.78 61.42 84.45 61.42 84.45 69.1 92.13 69.1 92.13 92.13 99.81 92.13 99.81 99.81 107.49 99.81 107.49 115.17 84.45 115.17 84.45 107.49 61.42 107.49 61.42 99.81 46.07 99.81 46.07 92.13 23.03 92.13 23.03 84.46 15.36 84.46 15.36 46.07 7.68 46.07 7.68 38.39 0 38.39 0 15.36 15.36 15.36 15.36 7.68 30.71 7.68 30.71 0 61.42 0 61.42 7.68 76.78 7.68 76.78 15.36 92.13 15.36 92.13 38.39 84.45 38.39 84.45 46.07 76.78 46.07 76.78 53.74"/><rect class="cls-2" x="7.68" y="23.03" width="7.68" height="7.68"/><rect class="cls-2" x="69.1" y="23.03" width="7.68" height="7.68"/><polygon class="cls-1" points="15.36 76.78 23.03 76.78 23.03 84.46 46.07 84.46 46.07 92.13 61.42 92.13 61.42 99.81 69.1 99.81 84.45 99.81 84.45 107.49 92.13 107.49 92.13 115.17 84.45 115.17 84.45 107.49 61.42 107.49 61.42 99.81 46.07 99.81 46.07 92.13 23.03 92.13 23.03 84.46 15.36 84.46 15.36 76.78"/><polygon class="cls-1" points="76.78 46.07 69.1 46.07 69.1 53.74 61.42 53.74 61.42 61.42 69.1 61.42 69.1 53.74 76.78 53.74 76.78 46.07"/><polygon class="cls-1" points="84.45 84.46 84.45 92.13 76.78 92.13 76.78 99.81 84.45 99.81 84.45 115.17 92.13 115.17 92.13 122.84 99.81 122.84 99.81 130.52 115.17 130.52 115.17 138.2 138.2 138.2 138.2 122.84 130.52 122.84 130.52 115.17 122.84 115.17 122.84 84.46 84.45 84.46"/><polygon class="cls-5" points="138.2 115.17 138.2 107.49 130.52 107.49 130.52 99.81 122.84 99.81 122.84 107.49 130.52 107.49 130.52 115.17 138.2 115.17"/><polygon class="cls-5" points="130.52 53.74 130.52 61.42 138.2 61.42 138.2 69.1 145.88 69.1 145.88 61.42 138.2 61.42 138.2 53.74 130.52 53.74"/><polygon class="cls-3" points="46.07 0 46.07 7.68 61.42 7.68 61.42 15.36 76.78 15.36 76.78 23.03 84.45 23.03 84.45 15.36 76.78 15.36 76.78 7.68 61.42 7.68 61.42 0 46.07 0"/><polygon class="cls-4" points="199.62 30.71 199.62 38.39 191.94 38.39 191.94 46.07 184.27 46.07 184.27 53.74 176.59 53.74 176.59 46.07 184.27 46.07 184.27 38.39 191.94 38.39 191.94 30.71 199.62 30.71"/><polygon class="cls-4" points="130.52 23.03 130.52 30.71 122.84 30.71 122.84 38.39 115.17 38.39 115.17 46.07 107.49 46.07 107.49 38.39 115.17 38.39 115.17 30.71 122.84 30.71 122.84 23.03 130.52 23.03"/></svg>