<?xml version="1.0" encoding="UTF-8"?><svg id="Layer_1" xmlns="http://www.w3.org/2000/svg" viewBox="0 0 176.59 168.91"><defs><style>.cls-1{fill:#9b302d;}.cls-1,.cls-2,.cls-3,.cls-4,.cls-5{stroke-width:0px;}.cls-2{fill:#c53e3c;}.cls-3{fill:#b23735;}.cls-4{fill:#261b15;}.cls-5{fill:#832121;}</style></defs><polygon class="cls-5" points="122.84 92.13 130.52 92.13 130.52 99.81 145.88 99.81 145.88 92.13 153.55 92.13 153.55 84.45 168.91 84.45 168.91 92.13 176.59 92.13 176.59 99.81 168.91 99.81 168.91 115.17 161.23 115.17 161.23 107.49 153.55 107.49 153.55 138.2 130.52 138.2 130.52 122.84 122.84 122.84 122.84 107.49 115.17 107.49 115.17 92.13 122.84 92.13"/><polygon class="cls-5" points="53.74 122.84 53.74 130.52 38.39 130.52 38.39 138.2 30.71 138.2 30.71 153.55 38.39 153.55 38.39 161.23 46.07 161.23 46.07 168.91 61.42 168.91 61.42 145.88 53.74 145.88 53.74 153.55 46.07 153.55 46.07 145.88 46.07 138.2 61.42 138.2 61.42 122.84 69.1 122.84 69.1 107.49 53.74 107.49 53.74 122.84"/><polygon class="cls-3" points="145.88 115.17 145.88 99.81 130.52 99.81 130.52 115.17 138.2 115.17 138.2 122.84 145.88 122.84 145.88 130.52 138.2 130.52 138.2 138.2 130.52 138.2 130.52 130.52 122.84 130.52 122.84 115.17 115.17 115.17 115.17 99.81 122.84 99.81 122.84 84.45 130.52 84.45 130.52 69.1 122.84 69.1 122.84 61.42 130.52 61.42 130.52 46.07 138.2 46.07 138.2 23.03 130.52 23.03 130.52 15.36 122.84 15.36 122.84 7.68 115.17 7.68 115.17 0 107.49 0 76.78 0 76.78 7.68 69.1 7.68 69.1 15.36 61.42 15.36 61.42 23.03 53.74 23.03 53.74 46.07 61.42 46.07 61.42 61.42 69.1 61.42 69.1 76.78 61.42 76.78 61.42 69.1 53.74 69.1 53.74 61.42 30.71 61.42 30.71 53.74 15.36 53.74 15.36 61.42 7.68 61.42 7.68 69.1 0 69.1 0 76.78 7.68 76.78 7.68 84.45 15.36 84.45 15.36 92.13 23.03 92.13 23.03 84.45 23.03 76.78 15.36 76.78 15.36 69.1 23.03 69.1 23.03 76.78 30.71 76.78 46.07 76.78 46.07 84.45 53.74 84.45 53.74 99.81 46.07 99.81 46.07 92.13 38.39 92.13 38.39 99.81 23.03 99.81 23.03 107.49 15.36 107.49 15.36 122.84 7.68 122.84 7.68 115.17 0 115.17 0 138.2 23.03 138.2 23.03 122.84 30.71 122.84 30.71 115.17 38.39 115.17 38.39 107.49 46.07 107.49 46.07 122.84 61.42 122.84 61.42 115.17 69.1 115.17 69.1 107.49 76.78 107.49 76.78 115.17 76.78 122.84 69.1 122.84 69.1 138.2 61.42 138.2 61.42 145.88 69.1 145.88 69.1 153.55 69.1 161.23 76.78 161.23 76.78 168.91 99.81 168.91 99.81 153.55 92.13 153.55 92.13 161.23 84.45 161.23 84.45 138.2 76.78 138.2 76.78 130.52 92.13 130.52 92.13 115.17 92.13 107.49 99.81 107.49 99.81 115.17 107.49 115.17 107.49 130.52 115.17 130.52 115.17 145.88 122.84 145.88 122.84 153.55 130.52 153.55 145.88 153.55 145.88 145.88 153.55 145.88 153.55 130.52 153.55 115.17 145.88 115.17"/><rect class="cls-4" x="99.81" y="53.74" width="7.68" height="7.68"/><rect class="cls-4" x="76.78" y="53.74" width="7.68" height="7.68"/><polygon class="cls-2" points="107.49 7.68 99.81 7.68 99.81 15.36 107.49 15.36 107.49 23.03 115.17 23.03 115.17 15.36 107.49 15.36 107.49 7.68"/><polygon class="cls-2" points="76.78 38.39 69.1 38.39 69.1 46.07 61.42 46.07 61.42 53.74 69.1 53.74 69.1 46.07 76.78 46.07 76.78 38.39"/><polygon class="cls-2" points="115.17 46.07 115.17 46.07 122.84 46.07 122.84 38.39 115.17 38.39 115.17 46.07"/><polygon class="cls-1" points="69.1 107.49 69.1 99.81 76.78 99.81 76.78 92.13 84.45 92.13 84.45 99.81 76.78 99.81 76.78 107.49 69.1 107.49"/><polygon class="cls-1" points="122.84 92.13 115.17 92.13 115.17 84.45 107.49 84.45 107.49 76.78 115.17 76.78 115.17 84.45 122.84 84.45 122.84 92.13"/><rect class="cls-1" x="23.03" y="69.1" width="7.68" height="7.68"/><polygon class="cls-1" points="46.07 76.78 53.74 76.78 53.74 84.45 61.42 84.45 61.42 92.13 53.74 92.13 53.74 84.45 46.07 84.45 46.07 76.78"/></svg>