<?xml version="1.0" encoding="UTF-8"?><svg id="Layer_1" xmlns="http://www.w3.org/2000/svg" viewBox="0 0 214.98 122.84"><defs><style>.cls-1{fill:#3c1c06;}.cls-1,.cls-2,.cls-3{stroke-width:0px;}.cls-2{fill:#261b15;}.cls-3{fill:#59310e;}</style></defs><polygon class="cls-2" points="107.49 76.78 107.49 84.45 115.17 84.45 115.17 92.13 122.84 92.13 122.84 99.81 107.49 99.81 107.49 92.13 92.13 92.13 92.13 76.78 107.49 76.78"/><polygon class="cls-1" points="207.3 99.81 207.3 84.45 199.62 84.45 199.62 76.78 184.27 76.78 184.27 69.1 176.59 69.1 176.59 61.42 168.91 61.42 168.91 53.74 161.23 53.74 161.23 46.07 153.55 46.07 153.55 38.39 138.2 38.39 138.2 30.71 107.49 30.71 99.81 30.71 99.81 23.03 92.13 23.03 92.13 0 84.46 0 84.46 7.68 76.78 7.68 76.78 15.36 69.1 15.36 69.1 23.03 61.42 23.03 61.42 30.71 53.74 30.71 53.74 38.39 46.07 38.39 38.39 38.39 38.39 46.07 30.71 46.07 30.71 53.74 23.03 53.74 23.03 61.42 15.36 61.42 15.36 69.1 7.68 69.1 7.68 76.78 7.68 92.13 7.68 99.81 0 99.81 0 115.17 7.68 115.17 7.68 122.84 30.71 122.84 30.71 115.17 38.39 115.17 38.39 107.49 46.07 107.49 46.07 99.81 61.42 99.81 61.42 92.13 69.1 92.13 69.1 84.45 92.13 84.45 99.81 84.45 99.81 76.78 122.84 76.78 138.2 76.78 145.88 76.78 145.88 84.45 168.91 84.45 168.91 92.13 161.23 92.13 161.23 115.17 168.91 115.17 168.91 122.84 176.59 122.84 176.59 99.81 184.27 99.81 184.27 92.13 191.94 92.13 191.94 99.81 199.62 99.81 199.62 107.49 214.98 107.49 214.98 99.81 207.3 99.81"/><polygon class="cls-3" points="15.36 122.84 15.36 115.17 30.71 115.17 30.71 107.49 38.39 107.49 38.39 92.13 61.42 92.13 61.42 84.45 69.1 84.45 69.1 76.78 92.13 76.78 92.13 69.1 153.55 69.1 153.55 76.78 161.23 76.78 161.23 84.45 145.88 84.45 145.88 76.78 99.81 76.78 99.81 84.45 69.1 84.45 69.1 92.13 61.42 92.13 61.42 99.81 46.07 99.81 46.07 107.49 38.39 107.49 38.39 115.17 30.71 115.17 30.71 122.84 15.36 122.84"/><polygon class="cls-3" points="23.03 76.78 30.71 76.78 30.71 69.1 46.07 69.1 46.07 76.78 38.39 76.78 38.39 92.13 23.03 92.13 23.03 76.78"/><rect class="cls-2" x="23.03" y="76.78" width="7.68" height="7.68"/><polygon class="cls-3" points="122.84 30.71 122.84 38.39 115.17 38.39 115.17 46.07 122.84 46.07 122.84 53.74 138.2 53.74 138.2 46.07 153.55 46.07 153.55 38.39 138.2 38.39 138.2 30.71 122.84 30.71"/><polygon class="cls-1" points="84.46 99.81 84.46 76.78 61.42 76.78 61.42 92.13 61.42 99.81 69.1 99.81 76.78 99.81 76.78 107.49 92.13 107.49 92.13 99.81 84.46 99.81"/></svg>