<?xml version="1.0" encoding="UTF-8"?><svg id="Layer_1" xmlns="http://www.w3.org/2000/svg" viewBox="0 0 214.98 115.17"><defs><style>.cls-1{fill:#929ab0;}.cls-1,.cls-2,.cls-3,.cls-4{stroke-width:0px;}.cls-2{fill:#261b15;}.cls-3{fill:#fff;}.cls-4{fill:#c9cee1;}</style></defs><polygon class="cls-1" points="61.42 30.71 53.74 30.71 53.74 38.39 30.71 38.39 30.71 46.07 23.03 46.07 23.03 53.74 7.68 53.74 7.68 61.42 0 61.42 0 69.1 7.68 69.1 7.68 76.78 15.36 76.78 15.36 84.46 23.03 84.46 23.03 92.13 30.71 92.13 30.71 99.81 38.39 99.81 38.39 107.49 92.13 107.49 92.13 99.81 115.17 99.81 122.84 99.81 122.84 92.13 138.2 92.13 138.2 84.46 168.91 84.46 168.91 92.13 184.27 92.13 184.27 99.81 191.94 99.81 191.94 115.17 207.3 115.17 207.3 107.49 199.62 107.49 199.62 92.13 191.94 92.13 191.94 76.78 184.27 76.78 184.27 69.1 191.94 69.1 191.94 53.74 199.62 53.74 199.62 46.07 207.3 46.07 207.3 38.39 214.98 38.39 214.98 30.71 207.3 30.71 199.62 30.71 199.62 38.39 191.94 38.39 191.94 46.07 184.27 46.07 184.27 53.74 176.59 53.74 176.59 61.42 168.91 61.42 168.91 53.74 161.23 53.74 161.23 46.07 153.55 46.07 153.55 38.39 138.2 38.39 138.2 30.71 92.13 30.71 92.13 23.03 92.13 0 84.46 0 84.46 7.68 76.78 7.68 76.78 15.36 69.1 15.36 69.1 23.03 61.42 23.03 61.42 30.71"/><polygon class="cls-3" points="15.36 76.78 30.71 76.78 30.71 84.46 38.39 84.46 38.39 92.13 46.07 92.13 46.07 99.81 61.42 99.81 61.42 92.13 92.13 92.13 92.13 84.46 107.49 84.46 107.49 92.13 115.17 92.13 115.17 84.46 130.52 84.46 130.52 76.78 153.55 76.78 168.91 76.78 176.59 76.78 176.59 92.13 168.91 92.13 168.91 84.46 138.2 84.46 138.2 92.13 122.84 92.13 122.84 99.81 92.13 99.81 92.13 107.49 38.39 107.49 38.39 99.81 30.71 99.81 30.71 92.13 23.03 92.13 23.03 84.46 15.36 84.46 15.36 76.78"/><polygon class="cls-1" points="61.42 84.46 61.42 92.13 69.1 92.13 69.1 99.81 76.78 99.81 76.78 107.49 84.46 107.49 84.46 115.17 99.81 115.17 99.81 107.49 99.81 99.81 92.13 99.81 92.13 84.46 61.42 84.46"/><rect class="cls-2" x="38.39" y="53.74" width="7.68" height="7.68"/><polygon class="cls-4" points="53.74 61.42 61.42 61.42 61.42 69.1 69.1 69.1 69.1 76.78 61.42 76.78 61.42 84.46 53.74 84.46 53.74 76.78 61.42 76.78 61.42 69.1 53.74 69.1 53.74 61.42"/><polygon class="cls-4" points="92.13 30.71 84.46 30.71 84.46 23.03 84.46 15.36 92.13 15.36 92.13 30.71"/><polygon class="cls-4" points="122.84 30.71 122.84 38.39 130.52 38.39 130.52 46.07 138.2 46.07 145.88 46.07 145.88 53.74 161.23 53.74 161.23 61.42 168.91 61.42 168.91 53.74 161.23 53.74 161.23 46.07 153.55 46.07 153.55 38.39 138.2 38.39 138.2 30.71 122.84 30.71"/></svg>