<?xml version="1.0" encoding="UTF-8"?><svg id="Layer_1" xmlns="http://www.w3.org/2000/svg" viewBox="0 0 207.3 99.81"><defs><style>.cls-1{fill:#ba7b3b;}.cls-1,.cls-2,.cls-3,.cls-4{stroke-width:0px;}.cls-2{fill:#261b15;}.cls-3{fill:#59310e;}.cls-4{fill:#814e1d;}</style></defs><polygon class="cls-3" points="92.13 30.71 92.13 23.03 99.81 23.03 99.81 7.68 107.49 7.68 107.49 15.36 115.17 15.36 115.17 30.71 92.13 30.71"/><polygon class="cls-4" points="161.23 0 145.88 0 145.88 7.68 122.84 7.68 122.84 15.36 115.17 15.36 115.17 23.03 99.81 23.03 99.81 30.71 84.45 30.71 84.45 23.03 69.1 23.03 69.1 15.36 46.07 15.36 46.07 23.03 38.39 23.03 38.39 30.71 30.71 30.71 30.71 38.39 23.03 38.39 23.03 46.07 7.68 46.07 7.68 53.74 0 53.74 0 61.42 0 69.1 7.68 69.1 7.68 61.42 15.36 61.42 23.03 61.42 23.03 69.1 23.03 76.78 15.36 76.78 15.36 84.45 30.71 84.45 30.71 69.1 38.39 69.1 38.39 61.42 38.39 53.74 38.39 46.07 46.07 46.07 46.07 53.74 53.74 53.74 53.74 61.42 61.42 61.42 69.1 61.42 69.1 69.1 76.78 69.1 76.78 76.78 92.13 76.78 92.13 84.45 153.55 84.45 153.55 76.78 168.91 76.78 168.91 69.1 184.27 69.1 184.27 61.42 191.94 61.42 191.94 53.74 199.62 53.74 199.62 38.39 207.3 38.39 207.3 15.36 199.62 15.36 199.62 7.68 184.27 7.68 184.27 0 161.23 0"/><polygon class="cls-3" points="46.07 46.07 53.74 46.07 53.74 53.74 61.42 53.74 76.78 53.74 76.78 61.42 84.45 61.42 84.45 69.1 92.13 69.1 99.81 69.1 99.81 76.78 130.52 76.78 130.52 69.1 138.2 69.1 138.2 61.42 153.55 61.42 153.55 53.74 176.59 53.74 176.59 46.07 184.27 46.07 184.27 38.39 199.62 38.39 199.62 53.74 191.94 53.74 191.94 61.42 184.27 61.42 184.27 69.1 168.91 69.1 168.91 76.78 153.55 76.78 153.55 84.45 92.13 84.45 92.13 76.78 76.78 76.78 76.78 69.1 69.1 69.1 69.1 61.42 53.74 61.42 53.74 53.74 46.07 53.74 46.07 46.07"/><polygon class="cls-4" points="145.88 61.42 145.88 69.1 138.2 69.1 138.2 76.78 130.52 76.78 130.52 92.13 115.17 92.13 115.17 99.81 107.49 99.81 107.49 92.13 107.49 84.45 115.17 84.45 115.17 76.78 107.49 76.78 107.49 61.42 145.88 61.42"/><rect class="cls-2" x="168.91" y="15.36" width="7.68" height="7.68"/><polygon class="cls-1" points="168.91 0 168.91 7.68 145.88 7.68 145.88 15.36 122.84 15.36 122.84 23.03 115.17 23.03 115.17 30.71 99.81 30.71 99.81 38.39 84.45 38.39 84.45 30.71 76.78 30.71 76.78 23.03 84.45 23.03 84.45 30.71 99.81 30.71 99.81 23.03 115.17 23.03 115.17 15.36 122.84 15.36 122.84 7.68 145.88 7.68 145.88 0 168.91 0"/><polygon class="cls-1" points="53.74 15.36 53.74 23.03 46.07 23.03 46.07 30.71 38.39 30.71 38.39 38.39 30.71 38.39 30.71 46.07 23.03 46.07 23.03 38.39 30.71 38.39 30.71 30.71 38.39 30.71 38.39 23.03 46.07 23.03 46.07 15.36 53.74 15.36"/></svg>